# xmcd
#
# Track frame offsets: 
#        150
#        15170
#        31182
#        47257
#        65014
#        81260
#        101390
#        115430
#        133257
#        148405
#        163495
#        178037
#        192530
#        208957
#        224262
#        241017
#        262160
#        282002
#        299907
#        318282
#
# Disc length: 4458 seconds
#
# Revision: 0
# Processed by: cddbd v1.4PL0 Copyright (c) Steve Scherf et al.
# Submitted via: ExactAudioCopy v0.90a11
#
DISCID=3d116814
DTITLE=Vince Gill - The Masters
DYEAR=1900
DGENRE=
TTITLE0=Savannah (Don't You Ever Think Of Me)
TTITLE1=If It Weren't For Man
TTITLE2=It Doesn't Matter Anymore
TTITLE3=The Way Back Home
TTITLE4=Baby That's Tough
TTITLE5=Something's Missing
TTITLE6=Waiting For Your Love
TTITLE7=Lucy Dee
TTITLE8=She Don't Know
TTITLE9=Victim Of Life's Circumstances
TTITLE10=Oh Carolina
TTITLE11=Turn Me Loose
TTITLE12=Oklahoma Borderline
TTITLE13=Livin' The Way I Do
TTITLE14=Midnight Train
TTITLE15=Losing Your Love
TTITLE16=Colder Than Winter
TTITLE17=Never Knew Lonely
TTITLE18=The Radio
TTITLE19=Cinderella
EXTD=
EXTT0=
EXTT1=
EXTT2=
EXTT3=
EXTT4=
EXTT5=
EXTT6=
EXTT7=
EXTT8=
EXTT9=
EXTT10=
EXTT11=
EXTT12=
EXTT13=
EXTT14=
EXTT15=
EXTT16=
EXTT17=
EXTT18=
EXTT19=
PLAYORDER=
